#!OML:ASF E:/inclinewalkrobotboard/Project1/Captureday1/Session1/subject1.ASF
:FULLY-SPECIFIED
:DEGREES
151
root 0 0 0 8.345270940387598 17.007521530010454 -8.212366472262831
lowerback 11.101756418168609 3.113403699966747 1.8222650296375553
upperback 2.280876107388856 4.071459962962929 -1.572081985660513
thorax -3.820964656658062 2.0828905835455234 -2.9973715639474543
lowerneck -7.539133854668055 -4.426559493951349 -6.368691770213984
upperneck 3.2525268427168292 -5.182295053774702 4.915152286478302
head 3.1212340720429856 -2.390896355206668 2.387321970516855
rclavicle -1.0978038437247215E-14 -4.567436070134055E-18
rhumerus 4.736563752310754 -10.32424468327178 -67.25729421006676
rradius 18.490411098091023
rwrist 56.982962871734
rhand -6.918782925787898 21.355997387896508
rfingers 7.12501999999992
rthumb 18.950099193934438 -8.31882536391381
lclavicle -9.793623856022427E-15 3.9950483503248044E-15
lhumerus -29.520182440372473 2.625162716040755 80.24218420065704
lradius 29.53278111062255
lwrist -37.901425464385355
lhand -8.435821378043968 15.488677091942998
lfingers 7.056723442195536
lthumb 17.232760242440392 42.347488677625805
rfemur 2.0803681829534355 7.78942827267759 36.45429270439238
rtibia 26.39529649049987
rfoot -18.80479469660877 -5.496126363286691
rtoes 10.03835629799928
lfemur -25.583047578741926 3.2716195625475377 -11.904496003307726
ltibia 69.2760837703168
lfoot 3.9541824614982968 -11.176112104783133
ltoes -8.7538760978281
152
root 0 0 0 8.696884829962565 18.551672432086942 -8.819466451394858
lowerback 11.034909038292191 3.067111523425238 1.6610369522861679
upperback 2.1594793508267145 3.998057196620694 -1.5946335046506641
thorax -3.9037601274026126 2.0490527471212454 -2.9251883426659693
lowerneck -7.762190943491834 -4.552617702120324 -6.586448870215553
upperneck 3.077678691105053 -5.322321082629624 4.984694219607919
head 3.1339761873556746 -2.4654655528679976 2.435006202459918
rclavicle -1.0990209948244296E-14 2.2776036924872547E-17
rhumerus 5.276973578553479 -10.774617565840972 -66.95516861759953
rradius 18.49694812912803
rwrist 57.023777731945444
rhand -7.009539789427873 21.387730480384892
rfingers 7.12501999999992
rthumb 18.86327857121687 -8.293051142362163
lclavicle -9.764970399109219E-15 4.0855322998061914E-15
lhumerus -29.02235638461717 3.195282457356459 79.78173261919758
lradius 29.83578740647203
lwrist -37.86773264120731
lhand -8.431760911766576 15.384994715131354
lfingers 7.057350014701989
lthumb 17.237552982662613 43.24205999479475
rfemur 1.5590290089811134 7.843573037428799 36.439799350958914
rtibia 26.025300114318373
rfoot -19.096222495917573 -5.705357731158691
rtoes 10.504618935469223
lfemur -26.140928957285546 3.2188692320411842 -11.8325600738949
ltibia 68.86045382431793
lfoot 3.625887968557736 -10.674153398195898
ltoes -8.167372841005662
153
root 0 0 0 8.983094596286758 19.948948759730772 -9.381931958748433
lowerback 10.946601139393216 3.020747196897088 1.513347524594963
upperback 2.0379653874584016 3.9264333054258995 -1.616599588380148
thorax -3.975440871009455 2.0157699157800812 -2.8601812641026587
lowerneck -7.973756220928054 -4.664892539810724 -6.78656410254
upperneck 2.9109309667832015 -5.447073639872009 5.054026284269275
head 3.144483887300195 -2.531964122402433 2.4806107176764822
rclavicle -1.1032025597093743E-14 6.48500268182136E-17
rhumerus 5.889336957164821 -11.199040338367906 -66.58543533434909
rradius 18.54470472460511
rwrist 57.00091282886848
rhand -7.110595720230242 21.391262793355054
rfingers 7.12501999999992
rthumb 18.76617974687086 -8.2957674744138
lclavicle -9.813659876564164E-15 4.181659573415281E-15
lhumerus -28.478030160945146 3.7871570381034445 79.27991583888264
lradius 30.088019498014866
lwrist -37.886697994591714
lhand -8.381327900227157 15.260401061173114
lfingers 7.05777788798034
lthumb 17.28605021446945 44.173699439728516
rfemur 1.4044363113505973 7.920316627865532 36.47727166999932
rtibia 25.65311088620135
rfoot -19.45553225917757 -5.864901859703972
rtoes 10.681663478632082
lfemur -26.93559280301723 3.179088673620315 -11.687596042991023
ltibia 68.42511930774336
lfoot 3.154418610030577 -10.005040868059503
ltoes -7.520355049330349
154
root 0 0 0 9.219102463109525 21.165075422601216 -9.869047649107062
lowerback 10.858493571867466 2.979382726399606 1.3805904343972308
upperback 1.927878699349783 3.862823256021715 -1.6383971125123966
thorax -4.036209316833367 1.9860747900614157 -2.804025452603326
lowerneck -8.16429456285645 -4.762688447194028 -6.960710864308361
upperneck 2.771247041927273 -5.555865005160589 5.119201406978406
head 3.1563716687438843 -2.589847307209944 2.521734666867079
rclavicle -1.1099941572876852E-14 1.211583049711763E-16
rhumerus 6.581658547813874 -11.602305896176 -66.14477452433549
rradius 18.63719953668941
rwrist 56.91377741447066
rhand -7.222672622714153 21.369248018817423
rfingers 7.125019999999921
rthumb 18.658129732376747 -8.324352269297478
lclavicle -9.879942642821805E-15 4.2803977427975945E-15
lhumerus -27.860689910535484 4.415867959842203 78.72089223697577
lradius 30.30982514923646
lwrist -37.9385290972332
lhand -8.31753614764935 15.116373096896229
lfingers 7.057866440525655
lthumb 17.346043349034687 45.140575247907336
rfemur 1.4887297275396385 7.998774548207318 36.54025012295104
rtibia 25.32399692404514
rfoot -19.808209075813338 -5.975019030269936
rtoes 10.646908675191447
lfemur -27.989882408666453 3.141058917185185 -11.485026819241702
ltibia 67.86071713030691
lfoot 2.500169824219366 -9.124178725444203
ltoes -6.751936288661581
